<?xml version="1.0" standalone="no"?>
<!DOCTYPE svg PUBLIC "-//W3C//DTD SVG 20010904//EN"
 "http://www.w3.org/TR/2001/REC-SVG-20010904/DTD/svg10.dtd">
<svg version="1.0" xmlns="http://www.w3.org/2000/svg"
 width="129.000000pt" height="129.000000pt" viewBox="0 0 129.000000 129.000000"
 preserveAspectRatio="xMidYMid meet">
<metadata>
Created by potrace 1.11, written by Peter Selinger 2001-2013
</metadata>
<g transform="translate(0.000000,129.000000) scale(0.100000,-0.100000)"
fill="#000000" stroke="none">
<path d="M465 1271 c-215 -62 -394 -244 -449 -457 -21 -81 -21 -247 0 -328 56
-216 244 -404 460 -460 81 -21 247 -21 328 0 166 43 325 169 403 320 55 106
73 180 73 304 0 124 -18 198 -73 304 -78 151 -237 277 -403 320 -84 22 -259
20 -339 -3z"/>
</g>
</svg>
