<svg width="1396" height="284" viewBox="0 0 1396 284" fill="none" xmlns="http://www.w3.org/2000/svg">
<path d="M41.999 278L73.919 195.92H192.859L225.539 278H267.719L159.419 6.29997H111.159C74.679 97.5 37.439 186.8 0.958984 278H41.999ZM134.339 42.78C137.759 53.04 144.219 68.62 150.299 84.96C171.579 139.68 170.819 140.44 179.939 162.86H86.839C103.179 121.82 117.239 82.3 133.579 42.78H134.339Z" fill="#251F2D"/>
<path d="M399.374 278L500.074 6.29997H457.894L404.694 157.16C395.194 184.52 385.694 210.36 376.954 236.58H376.194C367.074 208.08 359.474 186.42 349.974 159.44L296.774 6.29997H252.314C270.174 55.7 323.754 206.56 351.114 278H399.374Z" fill="#251F2D"/>
<path d="M535.402 278H575.302V6.29997H535.402V278Z" fill="#251F2D"/>
<path d="M641.535 278H801.135V243.42H681.815V6.29997H641.535V278Z" fill="#251F2D"/>
<path d="M844.523 278H884.423V6.29997H844.523V278Z" fill="#251F2D"/>
<path d="M987.896 6.29997H947.996V172.36C947.996 205.04 951.036 225.56 966.236 247.22C982.576 270.02 1013.36 282.56 1047.94 282.56C1082.52 282.56 1114.06 269.64 1130.78 246.46C1144.84 227.08 1148.64 204.28 1148.64 172.36V6.29997H1108.74V171.22C1108.74 194.02 1107.6 209.98 1100.38 223.28C1091.64 240 1071.12 250.26 1047.94 250.26C1024.76 250.26 1005 240 996.256 223.28C989.036 209.6 987.896 194.02 987.896 171.22V6.29997Z" fill="#251F2D"/>
<path d="M1192.9 200.86C1196.32 252.92 1234.7 283.32 1295.88 283.32C1354.78 283.32 1395.82 250.64 1395.82 200.86C1395.82 155.64 1364.66 137.78 1316.78 123.72L1297.78 118.02C1268.14 108.9 1244.2 100.16 1244.2 72.04C1244.2 49.24 1262.44 33.66 1294.36 33.66C1327.42 33.66 1344.52 49.24 1349.08 76.6H1390.12C1385.18 29.86 1353.64 0.599976 1295.5 0.599976C1239.26 0.599976 1201.26 31.38 1201.26 75.46C1201.26 118.78 1231.66 138.16 1280.68 153.36L1298.54 159.06C1330.08 169.32 1353.64 176.16 1353.64 205.8C1353.64 233.16 1332.36 251.4 1296.26 251.4C1257.12 251.4 1238.5 229.74 1233.56 200.86H1192.9Z" fill="#251F2D"/>
</svg>
