<?xml version="1.0" encoding="utf-8"?>
<!-- Generator: Adobe Illustrator 24.3.0, SVG Export Plug-In . SVG Version: 6.00 Build 0)  -->
<svg version="1.1" id="Layer_1" xmlns="http://www.w3.org/2000/svg" xmlns:xlink="http://www.w3.org/1999/xlink" x="0px" y="0px"
	 viewBox="0 0 2125.7 533.7" style="enable-background:new 0 0 2125.7 533.7;" xml:space="preserve">
<g>
	<path d="M0,198.7h43v17.2c8.3-8.7,15.4-14.5,21.2-17.6c6.2-3.2,14.1-4.8,23.5-4.8c21,0,37.7,9.2,49.9,27.5
		c13.5-18.4,31.8-27.5,54.9-27.5c41.9,0,62.9,25.4,62.9,76.3v115.1h-43.2V281.4c0-17.8-2.2-30.5-6.5-37.8
		c-4.5-7.5-11.8-11.3-22-11.3c-11.9,0-20.5,4.5-25.9,13.4s-8.1,23.3-8.1,43v96.1h-43.2V282c0-33.1-9.6-49.7-28.7-49.7
		c-12.1,0-20.9,4.5-26.5,13.6c-5.5,9-8.3,23.3-8.3,42.8v96.1H0V198.7z"/>
	<path d="M431.2,198.7h43.2v186.2h-43.2v-19.5c-17.7,16.6-36.8,24.8-57.2,24.8c-25.7,0-47-9.3-63.8-27.9c-16.7-19-25-42.7-25-71.1
		c0-27.9,8.3-51.2,25-69.8c16.7-18.6,37.6-27.9,62.7-27.9c21.7,0,41.1,8.9,58.3,26.8V198.7z M329.2,291.2c0,17.8,4.8,32.4,14.3,43.6
		c9.8,11.3,22.2,17,37.1,17c15.9,0,28.8-5.5,38.6-16.4c9.8-11.3,14.7-25.7,14.7-43.2s-4.9-31.9-14.7-43.2
		c-9.8-11.1-22.6-16.6-38.2-16.6c-14.8,0-27.1,5.6-37.1,16.8C334.1,260.5,329.2,274.5,329.2,291.2z"/>
	<path d="M563.9,62v322.8h-43V62H563.9z"/>
	<path d="M593.9,290.4c0-26.9,9.6-49.8,28.9-68.6c19.2-18.9,42.7-28.3,70.3-28.3c27.8,0,51.4,9.5,70.7,28.5
		c19.1,19,28.7,42.3,28.7,70c0,27.9-9.6,51.3-28.9,70.2c-19.4,18.7-43.1,28.1-71.3,28.1c-27.9,0-51.3-9.6-70.2-28.7
		C603.4,342.7,593.9,319,593.9,290.4z M637.9,291.2c0,18.6,5,33.3,14.9,44.2c10.2,11,23.6,16.4,40.3,16.4c16.8,0,30.3-5.4,40.3-16.2
		c10.1-10.8,15.1-25.3,15.1-43.4c0-18.1-5-32.6-15.1-43.4c-10.2-11-23.6-16.4-40.3-16.4c-16.4,0-29.8,5.5-39.9,16.4
		C643,259.7,637.9,273.9,637.9,291.2z"/>
	<path d="M865.4,198.7v106.9c0,30.8,12.2,46.3,36.5,46.3c24.3,0,36.5-15.4,36.5-46.3V198.7h43v107.8c0,14.9-1.8,27.8-5.5,38.6
		c-3.6,9.7-9.7,18.4-18.5,26.2c-14.5,12.6-33,18.9-55.4,18.9c-22.3,0-40.7-6.3-55.2-18.9c-8.9-7.8-15.2-16.5-18.9-26.2
		c-3.6-8.7-5.4-21.5-5.4-38.6V198.7H865.4z"/>
	<path d="M1140.8,198.7h43v17.2c8.3-8.7,15.4-14.5,21.2-17.6c6.2-3.2,14.1-4.8,23.5-4.8c21,0,37.7,9.2,49.9,27.5
		c13.5-18.4,31.8-27.5,54.9-27.5c41.9,0,62.9,25.4,62.9,76.3v115.1H1353V281.4c0-17.8-2.2-30.5-6.5-37.8c-4.5-7.5-11.8-11.3-22-11.3
		c-11.9,0-20.5,4.5-25.9,13.4s-8.1,23.3-8.1,43v96.1h-43.2V282c0-33.1-9.6-49.7-28.7-49.7c-12.1,0-20.9,4.5-26.5,13.6
		c-5.5,9-8.3,23.3-8.3,42.8v96.1h-43V198.7z"/>
	<path d="M1612.2,301.9h-133.4c1.1,15.3,6.1,27.5,14.9,36.5c8.8,8.9,20.1,13.4,33.8,13.4c10.7,0,19.6-2.5,26.6-7.6
		c6.9-5.1,14.7-14.5,23.5-28.3l36.3,20.3c-5.6,9.6-11.5,17.7-17.8,24.6c-6.2,6.8-12.9,12.4-20.1,16.8s-14.8,7.6-23.1,9.7
		c-8.3,2-17.3,3.1-27,3.1c-27.8,0-50.1-8.9-66.9-26.8c-16.8-18-25.2-41.8-25.2-71.5c0-29.4,8.2-53.3,24.5-71.5
		c16.4-18,38.2-27,65.4-27c27.4,0,49.1,8.7,65,26.2c15.8,17.3,23.7,41.4,23.7,72.1L1612.2,301.9z M1568.1,266.7
		c-6-22.9-20.5-34.4-43.4-34.4c-5.2,0-10.1,0.8-14.7,2.4c-4.6,1.6-8.8,3.9-12.5,6.9c-3.8,3-7,6.6-9.7,10.8s-4.7,9-6.1,14.3H1568.1z"
		/>
	<path d="M1780.8,62h43.2v322.8h-43.2v-19.5c-16.9,16.6-36.1,24.8-57.5,24.8c-25.5,0-46.6-9.3-63.5-27.9c-16.7-19-25-42.7-25-71.1
		c0-27.8,8.3-51,25-69.6c16.6-18.7,37.4-28.1,62.5-28.1c21.8,0,41.3,8.9,58.5,26.8V62z M1678.7,291.2c0,17.8,4.8,32.4,14.3,43.6
		c9.8,11.3,22.2,17,37.1,17c15.9,0,28.8-5.5,38.6-16.4c9.8-11.3,14.7-25.7,14.7-43.2s-4.9-31.9-14.7-43.2
		c-9.8-11.1-22.6-16.6-38.2-16.6c-14.8,0-27.1,5.6-37.1,16.8C1683.6,260.5,1678.7,274.5,1678.7,291.2z"/>
	<path d="M1856.1,121.3c0-7.5,2.7-14,8.2-19.5c5.5-5.5,12-8.2,19.7-8.2c7.8,0,14.4,2.7,19.9,8.2c5.5,5.4,8.2,11.9,8.2,19.7
		s-2.7,14.4-8.2,19.9c-5.4,5.5-11.9,8.2-19.7,8.2c-7.8,0-14.4-2.7-19.9-8.2C1858.9,135.8,1856.1,129.2,1856.1,121.3z M1905.6,198.7
		v186.2h-43V198.7H1905.6z"/>
	<path d="M2081.7,198.7h43.2v186.2h-43.2v-19.5c-17.7,16.6-36.8,24.8-57.2,24.8c-25.7,0-47-9.3-63.8-27.9c-16.7-19-25-42.7-25-71.1
		c0-27.9,8.3-51.2,25-69.8c16.7-18.6,37.6-27.9,62.7-27.9c21.7,0,41.1,8.9,58.3,26.8V198.7z M1979.6,291.2
		c0,17.8,4.8,32.4,14.3,43.6c9.8,11.3,22.2,17,37.1,17c15.9,0,28.8-5.5,38.6-16.4c9.8-11.3,14.7-25.7,14.7-43.2s-4.9-31.9-14.7-43.2
		c-9.8-11.1-22.6-16.6-38.2-16.6c-14.8,0-27.1,5.6-37.1,16.8C1984.5,260.5,1979.6,274.5,1979.6,291.2z"/>
</g>
</svg>
