<?xml version="1.0" encoding="utf-8"?>
<!-- Generator: Adobe Illustrator 24.3.0, SVG Export Plug-In . SVG Version: 6.00 Build 0)  -->
<svg version="1.1" id="Layer_1" xmlns="http://www.w3.org/2000/svg" xmlns:xlink="http://www.w3.org/1999/xlink" x="0px" y="0px"
	 viewBox="0 0 1425.9 533.7" style="enable-background:new 0 0 1425.9 533.7;" xml:space="preserve">
<g>
	<path d="M1204.7,235.7c11.8-6.6,23.8-12.6,37.9-12.8c25.3-0.3,37.8,13.9,34.8,39.1c-1.7,14.4-8.5,25.9-17,37
		c-8.5,11.1-18.2,21.5-22.2,38.2c7.8-1.2,15.1-0.5,20.6-3.5c12.9-6.9,25-15.3,37.1-23.5c2.5-1.7,4-5.1,5.4-8
		c9.3-19.4,18.3-39,27.7-58.4c5.3-11,13.5-15.5,22.8-13.5c9,2,14.3,8.5,14.4,20.8c0.1,7.1-1.4,14.7-4.2,21.3
		c-7,16.2-15.2,31.9-22.6,47.9c-2.1,4.5-3,9.4-4.5,14.5c11.6,3.9,21.3,0.9,29.1-5.1c14-10.7,27-22.7,40.4-34.2c2-1.7,3.7-4.2,6-5.3
		c5.1-2.5,10.3-1.5,11.7,4.2c3.2,13,4.9,25.9-6.7,36.6c-18.5,17.1-36.2,35.3-59.9,45.5c-6.3,2.7-13,5-19.7,6
		c-23.3,3.3-35.3-4.4-43.3-27.1c-7.1,4.5-14,9.1-21.1,13.3c-15.3,8.8-31.2,15.3-49.4,14.3c-16.8-1-24.1-9.5-27.2-25.2
		c-4.9-25.5,7.6-44.5,20.5-63.8c4.9-7.4,9.9-14.8,14.8-22.2c-0.5-1.1-1.1-2.2-1.6-3.3c-7.1,1.9-14.6,2.8-21.2,5.8
		c-14.1,6.4-24.3,17.8-32.4,30.5c-11.6,18.1-22.1,37-33.3,55.4c-3.4,5.6-7.1,11.1-11.4,16.1c-5,6-11.7,8.5-19.4,5.8
		c-7.5-2.6-8.9-9-9.1-16c0-1.8-0.5-3.5-0.9-6.5c-5.7,2.9-10.7,6.1-16.1,8c-15.2,5.3-30.3,12.1-46.1,14.7
		c-20.7,3.3-40.1,0.7-52.2-29.1c-20.3,13.1-42,23.3-65.7,28.7c-19.9,4.5-27.9-2.1-30.9-22.3c-2.7-18.3,3.9-33.4,12.3-48.5
		c7.4-13.3,15-26.4,22.6-39.6c-0.5-1-1.1-2-1.6-2.9c-6.9,1.7-14.3,2.4-20.6,5.4c-17.9,8.6-30.6,23.3-41.3,39.2
		c-10.7,15.8-19.8,32.7-29.6,49.2c-2,3.3-3.9,6.8-5.9,10.1c-4.4,7.3-10.9,12.5-19.3,9.9c-5.7-1.8-10.1-7.4-16.2-12.1
		c-8.1,3.1-18.9,7.6-29.9,11.1c-4.7,1.5-10.1,1.6-15.1,1.3c-10-0.6-16.4-7.2-17.7-17.2c-0.7-5.8-1.4-11.7-2.1-17.6
		c-8.9,7.2-17,14.7-26,20.9c-13.6,9.4-29.1,14-45.8,14.1c-24.1,0.1-31.5-5.4-37.2-27.9c-12.3,7.1-24.3,14.8-37,21.4
		c-12.6,6.5-26.2,8.7-40.2,5.1c-14-3.6-18.7-11.5-21.2-25.5c-4-22.7,5.3-40.1,18.3-56.9c6.8-8.8,13.1-18,19.6-27.1
		c-0.8-1.2-1.7-2.4-2.5-3.6c-6.9,2-14.2,3.1-20.5,6.3c-19.3,9.7-31.2,27-42.2,44.5c-8,12.9-14.4,26.8-21.7,40.2
		c-3.1,5.8-6.3,11.5-10,16.9c-4.7,6.9-11.6,8.2-19.2,5.8c-7.2-2.3-9.2-7.7-10.4-15c-3-16.9,4.5-30.5,12.6-43.7
		c8.7-14.3,18.6-27.9,27.8-41.9c2.1-3.1,3.7-6.6,5.5-9.9c-0.5-1-1-2-1.5-3c-7.1,2-15.1,2.6-21,6.4c-9.2,5.9-18.9,12.7-25.1,21.5
		c-13.6,19.2-25.2,39.9-37.5,60c-4,6.6-7.2,13.8-11.5,20.2c-4.4,6.6-11.3,7.9-18.4,5.7c-7.2-2.2-10.6-7.7-10.3-15.1
		c0.4-10.1,1.2-20.2,1.9-30.6c-11.2,4.9-23.3,5.2-35.4-2.6c-10.4,15.7-23.4,28.4-39.9,37.1c-16.3,8.6-33.6,12.9-52.1,11.7
		c-20.6-1.3-36.9-17.2-39.1-37.8c-0.3-3.2-1.2-6.4-1.8-9.9c-12,7.9-23.3,16.2-35.4,23.2c-21.8,12.6-45.3,21.6-70.4,23.4
		c-14.2,1-29.5-1.4-43.2-5.7c-20.9-6.6-30.2-23.2-33.4-44.8c-6.3-43.6,9.6-81.3,30.4-117.5c26.1-45.3,59.6-84.1,104.9-111.6
		c21.3-13,44.1-22.1,69.9-19.8c22.5,2,33.3,12.3,35.7,33.6c3.3,29.1-7.7,52.6-25.7,73.8c-5.9,6.9-13.5,12-23.4,11.8
		c-6.9-0.1-15.3,1.2-18.1-6.7c-2.8-7.8-4.9-16.6,1.1-24.7c6.7-9.2,13.7-18.2,19.4-28c2.7-4.6,2.5-10.9,3.6-16.4
		c-6.4-0.1-13.8-2.3-18.8,0.2c-12.5,6.3-25.1,13.3-35.3,22.6c-39.8,36.3-70.7,79-89.9,129.5c-2.2,5.8-3.7,12-5,18.1
		C44.8,321.9,61,337.5,87,331.3c24.4-5.7,45.8-17.7,66.2-31.8c18.3-12.6,37-24.6,55-37.6c7.4-5.4,12.9-13.4,20.1-19.1
		c20.8-16.5,44.5-23.8,70.8-18c29.4,6.4,37.5,26.1,35.9,56.4c-0.2,4.7-1.7,9.3-3.1,16.4c6.2-1.4,11.9-1.4,16-3.9
		c19.6-12,37.5-25.9,47.2-47.7c1.6-3.5,3.7-7.1,6.4-9.6c5.2-4.8,11.3-8.4,18.8-5.7c7.1,2.6,8.3,8.9,9,15.3c0.2,1.4,0.5,2.8,0.9,4.5
		c7.5-5.8,14.3-11.6,21.6-16.7c10.9-7.6,23.2-11.3,36.5-10.9c14.8,0.5,25.2,7.3,28.3,23.4c12.9-11.3,25.6-21.2,42.2-22.7
		c7.9-0.7,16.3-0.1,24,1.8c10.1,2.5,16.1,10,17.9,20.4c3.3,19,0,36.3-12.3,51.6c-5.1,6.3-10.5,12.4-15.3,18.9
		c-4.2,5.7-7.9,11.8-11.8,17.7c0.5,1,0.9,1.9,1.4,2.9c6.7-1.2,14.3-0.8,20.1-3.8c23.3-12.2,44.8-26.2,55.2-52.6
		c6.1-15.5,15.4-29.8,23.4-44.5c1.4-2.6,3.3-5.1,5.4-7.1c7.4-6.9,20-7.9,27.6-2.5c5.7,4,8.7,19.4,4.4,27.3
		c-6.8,12.3-14.9,24-21.4,36.4c-5.9,11.4-11,23.3-15.4,35.3c-3.3,8.9-0.8,11.5,8.9,10.6c17.7-1.7,30.4-12.3,41.7-24.5
		c17.3-18.6,30.4-40,39.8-63.7c2.5-6.3,6-12.4,9.9-18c4.3-6.3,10.8-8.5,18.3-6.3c7.3,2.1,9.2,7.8,10.9,14.8
		c2.9,11.9-1.3,21.5-6.1,31.6c-9,18.9-17.7,38-26.1,57.1c-1.4,3.3-1,7.4-1.4,11.1c4.4,0.2,9.3,1.9,12.9,0.4
		c11.2-4.8,22.1-10.6,32.8-16.6c2.5-1.4,4-5,5.4-7.9c11-22.3,21.5-44.8,32.9-66.9c2.9-5.6,7.5-11.1,12.8-14.4
		c10.8-6.8,19.9-1.6,21.3,11.2c0.2,1.7,0.8,3.3,1.1,4.7c11.7-6.3,22.5-13.1,34.2-18.1c12.7-5.4,26-9.7,40.2-6.3
		c11.2,2.7,14.3,7.3,16.7,18.2c5.7,25.9-6.4,46.6-18.6,67.3c-5,8.5-10.5,16.7-16.7,26.6c3.4-0.9,5.3-1,6.9-1.8
		c14.4-7.4,29-14.4,43-22.6c4.8-2.8,8.8-7.9,11.6-12.9c16.9-30.6,38.2-56.7,71.3-70.9c10.3-4.4,21.1-6.9,32.5-3.7
		c7.5,2.1,11.2,6.8,12.6,14.5c2.3,13,2.1,25.6-2.7,37.9c-4.8,12.3-12.6,18.9-22,17.9c-2.4-0.3-5.4-3.4-6.4-6
		c-1.4-3.5-1.8-7.6-1.6-11.4c0.4-8.7-4.2-9.1-10.2-6.1c-17,8.7-27.6,23.5-36.7,39.6c-1.9,3.4-3.3,7.1-5,10.5
		c-4.4,9.1-2.7,14.1,7.3,15.3c7.8,1,16.2-0.2,23.8-2.2c23.6-6.1,44.1-18.8,64-32.3c3.4-2.3,5.8-6.8,7.8-10.7
		c28.6-56,57.1-112.1,85.6-168.2c6.8-13.4,16.9-19.1,30.3-17.6c6.9,0.8,10,4.6,11.7,11.4c2.9,11.9-1.5,21.2-7.1,31.2
		c-15.8,28.5-30.8,57.5-46,86.4c-0.1,0.6-0.2,1.3-0.3,1.9C1203.9,236.3,1204.3,236,1204.7,235.7z M227.9,319.6
		c-0.5,11.6,8.8,19.3,20.7,17.2c19.7-3.5,38.2-22.9,42.2-44.3c3.4-18.2-6.7-27.1-24.9-21.8C245.9,276.5,228.8,298.6,227.9,319.6z"/>
	<path d="M1375.3,221c-17.4,0-22.2-5.3-22.9-25.4c-0.5-12.9,10.4-25.4,23.1-26.7c19.3-1.9,26.6,4.9,26.7,26.2
		C1402.4,206.2,1393.9,222.8,1375.3,221z"/>
</g>
</svg>
